<svg width="1288" height="602" viewBox="0 0 1288 602" fill="none" xmlns="http://www.w3.org/2000/svg">
<mask id="mask0_30_34374" style="mask-type:alpha" maskUnits="userSpaceOnUse" x="0" y="0" width="1288" height="602">
<rect width="1287.5" height="601.5" fill="#235CF2"/>
</mask>
<g mask="url(#mask0_30_34374)">
<g opacity="0.2">
<rect width="182.525" height="182.525" transform="matrix(0.866025 0.5 -2.20305e-08 1 -113 -155.174)" stroke="white" stroke-linejoin="round"/>
<rect width="182.525" height="182.525" transform="matrix(0.866025 -0.5 2.20305e-08 1 45.0703 -63.9121)" stroke="white" stroke-linejoin="round"/>
<rect width="182.525" height="182.525" transform="matrix(0.866025 0.5 -2.20305e-08 1 -113 209.873)" stroke="white" stroke-linejoin="round"/>
<rect width="182.525" height="182.525" transform="matrix(0.866025 0.5 -0.866025 0.5 45.0703 118.611)" stroke="white" stroke-linejoin="round"/>
<rect width="182.525" height="182.525" transform="matrix(0.866025 -0.5 2.20305e-08 1 45.0703 301.135)" stroke="white" stroke-linejoin="round"/>
<rect width="182.525" height="182.525" transform="matrix(0.866025 0.5 -2.20305e-08 1 -113 574.925)" stroke="white" stroke-linejoin="round"/>
<rect width="182.525" height="182.525" transform="matrix(0.866025 0.5 -0.866025 0.5 45.0703 483.663)" stroke="white" stroke-linejoin="round"/>
<rect width="182.525" height="182.525" transform="matrix(0.866025 -0.5 2.20305e-08 1 45.0703 666.19)" stroke="white" stroke-linejoin="round"/>
<rect width="182.525" height="182.525" transform="matrix(0.866025 0.5 -2.20305e-08 1 203.145 -155.174)" stroke="white" stroke-linejoin="round"/>
<rect width="182.525" height="182.525" transform="matrix(0.866025 -0.5 2.20305e-08 1 361.215 -63.9121)" stroke="white" stroke-linejoin="round"/>
<rect width="182.525" height="182.525" transform="matrix(0.866025 0.5 -2.20305e-08 1 203.145 209.873)" stroke="white" stroke-linejoin="round"/>
<rect width="182.525" height="182.525" transform="matrix(0.866025 0.5 -0.866025 0.5 361.215 118.611)" stroke="white" stroke-linejoin="round"/>
<rect width="182.525" height="182.525" transform="matrix(0.866025 -0.5 2.20305e-08 1 361.215 301.135)" stroke="white" stroke-linejoin="round"/>
<rect width="182.525" height="182.525" transform="matrix(0.866025 0.5 -2.20305e-08 1 203.145 574.925)" stroke="white" stroke-linejoin="round"/>
<rect width="182.525" height="182.525" transform="matrix(0.866025 0.5 -0.866025 0.5 361.215 483.663)" stroke="white" stroke-linejoin="round"/>
<rect width="182.525" height="182.525" transform="matrix(0.866025 -0.5 2.20305e-08 1 361.215 666.19)" stroke="white" stroke-linejoin="round"/>
<rect width="182.525" height="182.525" transform="matrix(0.866025 0.5 -2.20305e-08 1 519.287 -155.174)" stroke="white" stroke-linejoin="round"/>
<rect width="182.525" height="182.525" transform="matrix(0.866025 -0.5 2.20305e-08 1 677.357 -63.9121)" stroke="white" stroke-linejoin="round"/>
<rect width="182.525" height="182.525" transform="matrix(0.866025 0.5 -2.20305e-08 1 519.287 209.873)" stroke="white" stroke-linejoin="round"/>
<rect width="182.525" height="182.525" transform="matrix(0.866025 0.5 -0.866025 0.5 677.357 118.611)" stroke="white" stroke-linejoin="round"/>
<rect width="182.525" height="182.525" transform="matrix(0.866025 -0.5 2.20305e-08 1 677.357 301.135)" stroke="white" stroke-linejoin="round"/>
<rect width="182.525" height="182.525" transform="matrix(0.866025 0.5 -2.20305e-08 1 519.287 574.925)" stroke="white" stroke-linejoin="round"/>
<rect width="182.525" height="182.525" transform="matrix(0.866025 0.5 -0.866025 0.5 677.357 483.663)" stroke="white" stroke-linejoin="round"/>
<rect width="182.525" height="182.525" transform="matrix(0.866025 -0.5 2.20305e-08 1 677.357 666.19)" stroke="white" stroke-linejoin="round"/>
<rect width="182.525" height="182.525" transform="matrix(0.866025 0.5 -2.20305e-08 1 835.432 -155.174)" stroke="white" stroke-linejoin="round"/>
<rect width="182.525" height="182.525" transform="matrix(0.866025 -0.5 2.20305e-08 1 993.502 -63.9121)" stroke="white" stroke-linejoin="round"/>
<rect width="182.525" height="182.525" transform="matrix(0.866025 0.5 -2.20305e-08 1 835.432 209.873)" stroke="white" stroke-linejoin="round"/>
<rect width="182.525" height="182.525" transform="matrix(0.866025 0.5 -0.866025 0.5 993.502 118.611)" stroke="white" stroke-linejoin="round"/>
<rect width="182.525" height="182.525" transform="matrix(0.866025 -0.5 2.20305e-08 1 993.502 301.135)" stroke="white" stroke-linejoin="round"/>
<rect width="182.525" height="182.525" transform="matrix(0.866025 0.5 -2.20305e-08 1 835.432 574.925)" stroke="white" stroke-linejoin="round"/>
<rect width="182.525" height="182.525" transform="matrix(0.866025 0.5 -0.866025 0.5 993.502 483.663)" stroke="white" stroke-linejoin="round"/>
<rect width="182.525" height="182.525" transform="matrix(0.866025 -0.5 2.20305e-08 1 993.502 666.19)" stroke="white" stroke-linejoin="round"/>
<rect width="182.525" height="182.525" transform="matrix(0.866025 0.5 -2.20305e-08 1 1151.57 -155.174)" stroke="white" stroke-linejoin="round"/>
<rect width="182.525" height="182.525" transform="matrix(0.866025 0.5 -2.20305e-08 1 1151.57 574.925)" stroke="white" stroke-linejoin="round"/>
<rect width="182.525" height="182.525" transform="matrix(0.866025 0.5 -0.866025 0.5 1309.64 483.663)" stroke="white" stroke-linejoin="round"/>
<rect width="182.525" height="182.525" transform="matrix(0.866025 0.5 -2.20305e-08 1 1151.57 209.873)" stroke="white" stroke-linejoin="round"/>
<rect width="182.525" height="182.525" transform="matrix(0.866025 0.5 -0.866025 0.5 1309.64 118.611)" stroke="white" stroke-linejoin="round"/>
</g>
</g>
</svg>
